# xmcd
#
# Track frame offsets: 
#        182
#        10252
#        21115
#        32055
#        42910
#        57147
#        68012
#        80555
#        90137
#        100025
#        112952
#        123255
#        134290
#        147602
#        159442
#        169940
#
# Disc length: 2442 seconds
#
# Revision: 4
# Processed by: cddbd v1.5.2PL0 Copyright (c) Steve Scherf et al.
# Submitted via: ExactAudioCopy v0.99pb5
#
DISCID=c5098810
DTITLE=Various Artist - More Country Gold - The Stars and Hits of Country and Wes
DTITLE=tern Music - CD 2
DYEAR=1900
DGENRE=Country
TTITLE0=Johnny Cash And The Tennessee Two - Goodbye little darlin'
TTITLE1=Frankie Laine - Humming bird
TTITLE2=Don Williams - Spend some time with me
TTITLE3=Donna Fargo - All that's keeping me alive
TTITLE4=George Jones - Things have gone to pieces
TTITLE5=Kenny Rogers and The First Edition - Always leaving, always gone
TTITLE6=Johnny Paycheck - Georgia in a jug
TTITLE7=Dottie West - Rocky top (Live)
TTITLE8=Hank Locklin - Please help me, I'm falling
TTITLE9=Stonewall Jackson - I washed my hands in muddy waters
TTITLE10=Carl Perkins - Daddy sang bass
TTITLE11=Patsy Cline and Crystal Gayle - I can't forget you
TTITLE12=Bobby Helms With The Anita Kerr Singers - My special angel
TTITLE13=Willie Nelson - The end of understanding
TTITLE14=Faron Young - If you ain't lovin' (you ain't livin')
TTITLE15=Lefty Frizzell - If you've got the money I've got the time
EXTD=
EXTT0=
EXTT1=
EXTT2=
EXTT3=
EXTT4=
EXTT5=
EXTT6=
EXTT7=
EXTT8=
EXTT9=
EXTT10=
EXTT11=
EXTT12=
EXTT13=
EXTT14=
EXTT15=
PLAYORDER=
